<svg xmlns="http://www.w3.org/2000/svg" xmlns:svg="http://www.w3.org/2000/svg" xmlns:xlink="http://www.w3.org/1999/xlink" version="1.0" height="899.9999999999984pt" width="1160pt" viewBox="144.9999999999999 -53.000000000000185 1168 905.9999999999984" ><defs><style type="text/css">
            @font-face {
                font-family: 'lt_regular';
                src: url('https://app.creately.com/diagram/assets/fonts/lato/lt-regular-webfont.woff2') format('woff2'),
                    url('https://app.creately.com/diagram/assets/fonts/lato/lt-regular-webfont.woff') format('woff');
                font-weight: normal;
                font-style: normal;
            }
            @font-face {
                font-family: 'noto_regular';
                src: url('https://app.creately.com/diagram/assets/fonts/noto/noto-regular.woff') format('woff'),
                     url('https://app.creately.com/diagram/assets/fonts/noto/noto-regular.woff2') format('woff2');
                font-weight: normal;
                font-style: normal;
            }
        p {
            margin: 0;
        }
        </style></defs><defs><style>
            span{ display: inline-block; }
        </style></defs><g id="7ocnVi0AyQS"><g transform="translate(149.9999999999999 -50.000000000000185)"><rect x="0" y="0" width="1160.0000000000002" height="899.9999999999984" fill="white" stroke="#ffffff" stroke-width="2" stroke-linecap="round" stroke-linejoin="round"/></g></g><g id="BoGOFGVZr2q"><g transform="translate(450 130)"><ellipse cx="49.99999999999997" cy="49.99999999999997" rx="49.99999999999997" ry="49.99999999999997" fill="rgb(237,138,123)" stroke="#ed8a7b" stroke-width="2" stroke-linecap="round" stroke-linejoin="round"/></g><g transform="translate(466, 160.49999999999997) rotate(0, 34, 19.5)" width="68" height="39"><text text-decoration="none" x="30" fill="rgb(255, 255, 255)" font-size="10pt" font-family="lt_regular"  y="14">1</text><text text-decoration="none" x="38" fill="rgb(255, 255, 255)" font-size="10pt" font-family="lt_regular"  y="14"></text><text text-decoration="none" x="16" fill="rgb(255, 255, 255)" font-size="10pt" font-family="lt_regular"  y="32">Verify&#160;</text><text text-decoration="none" x="19" fill="rgb(255, 255, 255)" font-size="10pt" font-family="lt_regular"  y="51">cards</text><text text-decoration="none" x="49" fill="#4b4b4b" font-size="10pt" font-family="noto_regular"  y="51"></text></g></g><g id="0ua3NXGzGSM"><g transform="translate(870 219.9999999999999)"><ellipse cx="49.99999999999994" cy="49.99999999999994" rx="49.99999999999994" ry="49.99999999999994" fill="rgb(134,193,185)" stroke="#86c1b9" stroke-width="2" stroke-linecap="round" stroke-linejoin="round"/></g><g transform="translate(890.5, 250.49999999999983) rotate(0, 29.5, 19.5)" width="59" height="39"><text text-decoration="none" x="25.5" fill="rgb(255, 255, 255)" font-size="10pt" font-family="lt_regular"  y="14">2</text><text text-decoration="none" x="33.5" fill="rgb(255, 255, 255)" font-size="10pt" font-family="lt_regular"  y="14"></text><text text-decoration="none" x="11.5" fill="rgb(255, 255, 255)" font-size="10pt" font-family="lt_regular"  y="32">Verify&#160;</text><text text-decoration="none" x="18.5" fill="rgb(255, 255, 255)" font-size="10pt" font-family="lt_regular"  y="51">PIN</text><text text-decoration="none" x="40.5" fill="#4b4b4b" font-size="10pt" font-family="noto_regular"  y="51"></text></g></g><g id="DvMcU6uiDS0"><g transform="translate(610 400)"><ellipse cx="49.37499999999997" cy="49.37499999999997" rx="49.37499999999997" ry="49.37499999999997" fill="rgb(100,185,213)" stroke="#64b9d5" stroke-width="2" stroke-linecap="round" stroke-linejoin="round"/></g><g transform="translate(635.875, 420.375) rotate(0, 23.5, 29)" width="47" height="58"><text text-decoration="none" x="19.5" fill="rgb(255, 255, 255)" font-size="10pt" font-family="lt_regular"  y="14">3</text><text text-decoration="none" x="27.5" fill="rgb(255, 255, 255)" font-size="10pt" font-family="lt_regular"  y="14"></text><text text-decoration="none" x="0.5" fill="rgb(255, 255, 255)" font-size="10pt" font-family="lt_regular"  y="32">Validate</text><text text-decoration="none" x="46.5" fill="rgb(255, 255, 255)" font-size="10pt" font-family="lt_regular"  y="32"></text><text text-decoration="none" x="0.5" fill="rgb(255, 255, 255)" font-size="10pt" font-family="lt_regular"  y="51">Amount</text><text text-decoration="none" x="46.5" fill="#4b4b4b" font-size="10pt" font-family="noto_regular"  y="51"></text></g></g><g id="jlBGd3rGUil"><g transform="translate(610 640)"><ellipse cx="49.999999999999964" cy="49.999999999999964" rx="49.999999999999964" ry="49.999999999999964" fill="rgb(138,114,182)" stroke="#8a72b6" stroke-width="2" stroke-linecap="round" stroke-linejoin="round"/></g><g transform="translate(626, 652.5) rotate(0, 34, 37.5)" width="68" height="75"><text text-decoration="none" x="30" fill="rgb(255, 255, 255)" font-size="10pt" font-family="lt_regular"  y="14">4</text><text text-decoration="none" x="38" fill="rgb(255, 255, 255)" font-size="10pt" font-family="lt_regular"  y="14"></text><text text-decoration="none" x="1" fill="rgb(255, 255, 255)" font-size="10pt" font-family="lt_regular"  y="32">Transaction</text><text text-decoration="none" x="67" fill="rgb(255, 255, 255)" font-size="10pt" font-family="lt_regular"  y="32"></text><text text-decoration="none" x="1.5" fill="rgb(255, 255, 255)" font-size="10pt" font-family="lt_regular"  y="50">Withdrawal</text><text text-decoration="none" x="66.5" fill="rgb(255, 255, 255)" font-size="10pt" font-family="lt_regular"  y="50"></text><text text-decoration="none" x="34" fill="#4b4b4b" font-size="10pt" font-family="noto_regular"  y="69"></text></g></g><g id="xfskdC0aTq8"><g transform="translate(1150 129.99999999999994)"><path d="M 0,0 L 100,0 M 100,40 L 0,40 M 0,0 Z" fill="white" stroke="#505050" stroke-width="2" stroke-linecap="round" stroke-linejoin="round" stroke-dasharray="3 3"/><rect x="0" y="0" width="100" height="40" fill="rgba(255,255,255,0.01)" stroke="rgba(255,255,255,0.01)" stroke-width="2" stroke-linecap="round" stroke-linejoin="round" stroke-dasharray="3 3"/></g><g transform="translate(1178.5, 139.99999999999994) rotate(0, 21.5, 10)" width="43" height="20"><text text-decoration="none" x="0" fill="rgb(0, 0, 0)" font-size="10pt" font-family="lt_regular"  y="15">CARDS</text><text text-decoration="none" x="43" fill="#4b4b4b" font-size="10pt" font-family="noto_regular"  y="15"></text></g></g><g id="5oLqeqEenmF"><g transform="translate(1150 349.99999999999994)"><path d="M 0,0 L 100,0 M 100,40 L 0,40 M 0,0 Z" fill="white" stroke="#505050" stroke-width="2" stroke-linecap="round" stroke-linejoin="round" stroke-dasharray="3 3"/><rect x="0" y="0" width="100" height="40" fill="rgba(255,255,255,0.01)" stroke="rgba(255,255,255,0.01)" stroke-width="2" stroke-linecap="round" stroke-linejoin="round" stroke-dasharray="3 3"/></g><g transform="translate(1164, 359.99999999999994) rotate(0, 36, 10)" width="72" height="20"><text text-decoration="none" x="0" fill="rgb(0, 0, 0)" font-size="10pt" font-family="lt_regular"  y="15">ACCOUNTS</text><text text-decoration="none" x="72" fill="#4b4b4b" font-size="10pt" font-family="noto_regular"  y="15"></text></g></g><g id="1itXCD8JJ2W"><mask id="777ef" x="906" y="134" width="241" height="100" maskUnits="userSpaceOnUse"><rect x="906" y="134" width="241" height="100" fill="white" />undefined<rect x="994.9816079375003" y="156.7329007499999" width="93" height="26" fill="black" /></mask><g mask="url(#777ef)"><path d="M 920,220 C 920,169.9999999999999 1026.5,183.99999999999991 1133,148" fill="none" stroke="#7F7F7F" stroke-width="2" stroke-linecap="round" stroke-linejoin="round"/><path d="M 1133,148 L 1122.9544999697466,145.21346166869046 L 1126.502677866048,156.1524028247712 Z" fill="rgb(127,127,127)" stroke="#7F7F7F" stroke-width="2" stroke-linecap="round" stroke-linejoin="round"/></g>undefined<g transform="translate(997.9816079375003, 159.7329007499999)" width="87" height="20"><text text-decoration="none" x="0.5" fill="#4b4b4b" font-size="10pt" font-family="lt_regular"  y="15">Card&#160;</text><text text-decoration="none" x="30.5" fill="#4b4b4b" font-size="10pt" font-family="lt_regular"  y="15">Num,&#160;</text><text text-decoration="none" x="64.5" fill="#4b4b4b" font-size="10pt" font-family="lt_regular"  y="15">PIN</text><text text-decoration="none" x="86.5" fill="#4b4b4b" font-size="10pt" font-family="noto_regular"  y="15"></text></g></g><g id="zTlKWTus6nf"><mask id="ff016" x="521" y="43.085754497721794" width="643" height="115.9142455022782" maskUnits="userSpaceOnUse"><rect x="521" y="43.085754497721794" width="643" height="115.9142455022782" fill="white" /><rect x="787.8129315859371" y="44.11441216406243" width="105" height="26" fill="black" />undefined</mask><g mask="url(#ff016)"><path d="M 1150,130 C 1150,79.99999999999993 692.7084999999998,-12.708500000000129 535,145" fill="none" stroke="#7F7F7F" stroke-width="2" stroke-linecap="round" stroke-linejoin="round"/><path d="M 535,145 L 545.2651520463774,143.1824411441624 L 537.3468241579689,134.84277187903845 Z" fill="rgb(127,127,127)" stroke="#7F7F7F" stroke-width="2" stroke-linecap="round" stroke-linejoin="round"/></g><g transform="translate(790.8129315859371, 47.11441216406243)" width="99" height="20"><text text-decoration="none" x="1.5" fill="rgb(80, 80, 80)" font-size="10pt" font-family="lt_regular"  y="15">Card&#160;</text><text text-decoration="none" x="31.5" fill="rgb(80, 80, 80)" font-size="10pt" font-family="lt_regular"  y="15">type&#160;</text><text text-decoration="none" x="60.5" fill="rgb(80, 80, 80)" font-size="10pt" font-family="lt_regular"  y="15">details</text><text text-decoration="none" x="97.5" fill="#4b4b4b" font-size="10pt" font-family="noto_regular"  y="15"></text></g>undefined</g><g id="cU758jhwlVn"><mask id="b1eb8" x="953" y="156" width="211" height="109" maskUnits="userSpaceOnUse"><rect x="953" y="156" width="211" height="109" fill="white" /><rect x="1029.791550477033" y="208.96816459193056" width="74" height="26" fill="black" /></mask><g mask="url(#b1eb8)"><path d="M 1150,170 C 1150,219.99999999999994 1059.6463261885308,213.892501852809 967,251" fill="none" stroke="#7F7F7F" stroke-width="2" stroke-linecap="round" stroke-linejoin="round"/><path d="M 967,251 L 977.183634079788,253.22945366820164 L 973.0388013268687,242.50236825554984 Z" fill="rgb(127,127,127)" stroke="#7F7F7F" stroke-width="2" stroke-linecap="round" stroke-linejoin="round"/></g><g transform="translate(1032.791550477033, 211.96816459193056)" width="68" height="20"><text text-decoration="none" x="1" fill="rgb(80, 80, 80)" font-size="10pt" font-family="lt_regular"  y="15">Card&#160;</text><text text-decoration="none" x="31" fill="rgb(80, 80, 80)" font-size="10pt" font-family="lt_regular"  y="15">Status</text><text text-decoration="none" x="67" fill="#4b4b4b" font-size="10pt" font-family="noto_regular"  y="15"></text></g></g><g id="AwcZmwCzoc6"><mask id="637bd" x="691" y="291" width="208" height="154" maskUnits="userSpaceOnUse"><rect x="691" y="291" width="208" height="154" fill="white" /><rect x="766.5167676913651" y="368.768998497177" width="74" height="26" fill="black" /></mask><g mask="url(#637bd)"><path d="M 885,305 C 808.4413218749999,381.5586781249998 804.2700586353072,391.1586512008054 705,431" fill="none" stroke="#7F7F7F" stroke-width="2" stroke-linecap="round" stroke-linejoin="round"/><path d="M 705,431 L 715.2178540649604,433.0669603375129 L 710.9026802804539,422.4072570016077 Z" fill="rgb(127,127,127)" stroke="#7F7F7F" stroke-width="2" stroke-linecap="round" stroke-linejoin="round"/></g><g transform="translate(769.5167676913651, 371.768998497177)" width="68" height="20"><text text-decoration="none" x="1" fill="rgb(80, 80, 80)" font-size="10pt" font-family="lt_regular"  y="15">Card&#160;</text><text text-decoration="none" x="31" fill="rgb(80, 80, 80)" font-size="10pt" font-family="lt_regular"  y="15">Status</text><text text-decoration="none" x="67" fill="#4b4b4b" font-size="10pt" font-family="noto_regular"  y="15"></text></g></g><g id="ElpVOGXRtF9"><mask id="473e1" x="536" y="166" width="351" height="99" maskUnits="userSpaceOnUse"><rect x="536" y="166" width="351" height="99" fill="white" /><rect x="649.6812584701265" y="219.1933073106681" width="105" height="26" fill="black" /></mask><g mask="url(#473e1)"><path d="M 873,251 C 767.0815823716122,208.44653245056202 683.1228865276007,243.5196853494701 634,233 C 585.4546342593078,222.05081255984535 600,180 550,180" fill="none" stroke="#7F7F7F" stroke-width="2" stroke-linecap="round" stroke-linejoin="round"/><path d="M 550,180 L 558.295341598551,186.3138082401217 L 559.0577058744191,174.83910559862025 Z" fill="rgb(127,127,127)" stroke="#7F7F7F" stroke-width="2" stroke-linecap="round" stroke-linejoin="round"/></g><g transform="translate(652.6812584701265, 222.1933073106681)" width="99" height="20"><text text-decoration="none" x="2" fill="rgb(80, 80, 80)" font-size="10pt" font-family="lt_regular"  y="15">Valid&#160;</text><text text-decoration="none" x="33" fill="rgb(80, 80, 80)" font-size="10pt" font-family="lt_regular"  y="15">card&#160;</text><text text-decoration="none" x="60" fill="rgb(80, 80, 80)" font-size="10pt" font-family="lt_regular"  y="15">details</text><text text-decoration="none" x="97" fill="#4b4b4b" font-size="10pt" font-family="noto_regular"  y="15"></text></g></g><g id="AcfdfzmFYkh"><mask id="2659d" x="237" y="256" width="647" height="112" maskUnits="userSpaceOnUse"><rect x="237" y="256" width="647" height="112" fill="white" /><rect x="528.3863203146745" y="282.8544873143033" width="69" height="26" fill="black" /></mask><g mask="url(#2659d)"><path d="M 870,270 C 560.5866659194917,269.9999999999999 560.5866659194917,312.2031369852225 251,354" fill="none" stroke="#7E7E7E" stroke-width="2" stroke-linecap="round" stroke-linejoin="round"/><path d="M 251,354 L 260.4020249557866,358.5031981369294 L 258.82497280415663,347.111845868167 Z" fill="rgb(126,126,126)" stroke="#7E7E7E" stroke-width="2" stroke-linecap="round" stroke-linejoin="round"/></g><g transform="translate(531.3863203146745, 285.8544873143033)" width="63" height="20"><text text-decoration="none" x="0.5" fill="#4b4b4b" font-size="10pt" font-family="lt_regular"  y="15">Invalid&#160;</text><text text-decoration="none" x="40.5" fill="#4b4b4b" font-size="10pt" font-family="lt_regular"  y="15">PIN</text><text text-decoration="none" x="62.5" fill="#4b4b4b" font-size="10pt" font-family="noto_regular"  y="15"></text></g></g><g id="PzLqfZ1MMuP"><mask id="47b7c" x="236" y="108.24467496132345" width="243" height="55.755325038676546" maskUnits="userSpaceOnUse"><rect x="236" y="108.24467496132345" width="243" height="55.755325038676546" fill="white" /><rect x="308.08269875" y="121.79894875" width="75" height="26" fill="black" /></mask><g mask="url(#47b7c)"><path d="M 250,150 C 357.2915,147.29149999999998 412.2914999999999,92.29150000000004 465,145" fill="none" stroke="#7E7E7E" stroke-width="2" stroke-linecap="round" stroke-linejoin="round"/><path d="M 465,145 L 462.3659358028347,134.91344595340456 L 454.6874119850874,143.4744197286411 Z" fill="rgb(126,126,126)" stroke="#7E7E7E" stroke-width="2" stroke-linecap="round" stroke-linejoin="round"/></g><g transform="translate(311.08269875, 124.79894875)" width="69" height="20"><text text-decoration="none" x="1" fill="#4b4b4b" font-size="10pt" font-family="lt_regular"  y="15">Card&#160;</text><text text-decoration="none" x="31" fill="#4b4b4b" font-size="10pt" font-family="lt_regular"  y="15">details</text><text text-decoration="none" x="68" fill="#4b4b4b" font-size="10pt" font-family="noto_regular"  y="15"></text></g></g><g id="A0Px3XfUtDG"><mask id="5b18c" x="233" y="137.52129452523775" width="234" height="88.47870547476225" maskUnits="userSpaceOnUse"><rect x="233" y="137.52129452523775" width="234" height="88.47870547476225" fill="white" /><rect x="302.69647779769906" y="173.2151617213409" width="28" height="26" fill="black" /></mask><g mask="url(#5b18c)"><path d="M 247,212 C 350,186.5 373.13561119528197,128.91392136086435 453,161" fill="none" stroke="#7E7E7E" stroke-width="2" stroke-linecap="round" stroke-linejoin="round"/><path d="M 453,161 L 446.79158553085324,152.62548768530564 L 442.8632442237835,163.4337315100521 Z" fill="rgb(126,126,126)" stroke="#7E7E7E" stroke-width="2" stroke-linecap="round" stroke-linejoin="round"/></g><g transform="translate(305.69647779769906, 176.2151617213409)" width="22" height="20"><text text-decoration="none" x="0" fill="#4b4b4b" font-size="10pt" font-family="lt_regular"  y="15">PIN</text><text text-decoration="none" x="22" fill="#4b4b4b" font-size="10pt" font-family="noto_regular"  y="15"></text></g></g><g id="mCNb0aZBi6U"><mask id="c150d" x="237" y="201" width="242" height="64" maskUnits="userSpaceOnUse"><rect x="237" y="201" width="242" height="64" fill="white" /><rect x="301.8031686692199" y="234.6904515493848" width="75" height="26" fill="black" /></mask><g mask="url(#c150d)"><path d="M 465,215 C 402.2858941051071,277.7141058948927 357.8781659194917,233.3063777092773 251,251" fill="none" stroke="#7E7E7E" stroke-width="2" stroke-linecap="round" stroke-linejoin="round"/><path d="M 251,251 L 260.4562824471693,255.3881190741633 L 258.74032600662713,244.0168617340904 Z" fill="rgb(126,126,126)" stroke="#7E7E7E" stroke-width="2" stroke-linecap="round" stroke-linejoin="round"/></g><g transform="translate(304.8031686692199, 237.6904515493848)" width="69" height="20"><text text-decoration="none" x="1" fill="#4b4b4b" font-size="10pt" font-family="lt_regular"  y="15">Invalid&#160;</text><text text-decoration="none" x="41" fill="#4b4b4b" font-size="10pt" font-family="lt_regular"  y="15">Card</text><text text-decoration="none" x="68" fill="#4b4b4b" font-size="10pt" font-family="noto_regular"  y="15"></text></g></g><g id="e9fSdZKXQdz"><mask id="0cb1b" x="235" y="361.2425685186389" width="403" height="77.7574314813611" maskUnits="userSpaceOnUse"><rect x="235" y="361.2425685186389" width="403" height="77.7574314813611" fill="white" /><rect x="301.3205848007813" y="397.74397542578123" width="123" height="26" fill="black" /></mask><g mask="url(#0cb1b)"><path d="M 249,425 C 436.70035625,419.70035625 533.2003562500001,323.2003562499999 624,414" fill="none" stroke="#7E7E7E" stroke-width="2" stroke-linecap="round" stroke-linejoin="round"/><path d="M 624,414 L 621.5876469230908,403.8581353113934 L 613.7233272443137,412.2487536431971 Z" fill="rgb(126,126,126)" stroke="#7E7E7E" stroke-width="2" stroke-linecap="round" stroke-linejoin="round"/></g><g transform="translate(304.3205848007813, 400.74397542578123)" width="117" height="20"><text text-decoration="none" x="1" fill="#4b4b4b" font-size="10pt" font-family="lt_regular"  y="15">Transaction&#160;</text><text text-decoration="none" x="70" fill="#4b4b4b" font-size="10pt" font-family="lt_regular"  y="15">Amount</text><text text-decoration="none" x="116" fill="#4b4b4b" font-size="10pt" font-family="noto_regular"  y="15"></text></g></g><g id="h1yBXdlWOM3"><mask id="80d42" x="239" y="481" width="416" height="58.6672289473446" maskUnits="userSpaceOnUse"><rect x="239" y="481" width="416" height="58.6672289473446" fill="white" /><rect x="362.14245562496876" y="495.796118077629" width="105" height="26" fill="black" /></mask><g mask="url(#80d42)"><path d="M 641,495 C 613.6380875156558,563.2099063950342 446.9296875,496.22933125 253,497" fill="none" stroke="#7E7E7E" stroke-width="2" stroke-linecap="round" stroke-linejoin="round"/><path d="M 253,497 L 261.67904268299736,502.7750398125371 L 261.71218942295144,491.2750875824785 Z" fill="rgb(126,126,126)" stroke="#7E7E7E" stroke-width="2" stroke-linecap="round" stroke-linejoin="round"/></g><g transform="translate(365.14245562496876, 498.796118077629)" width="99" height="20"><text text-decoration="none" x="1" fill="#4b4b4b" font-size="10pt" font-family="lt_regular"  y="15">Overdraw&#160;</text><text text-decoration="none" x="61" fill="#4b4b4b" font-size="10pt" font-family="lt_regular"  y="15">details</text><text text-decoration="none" x="98" fill="#4b4b4b" font-size="10pt" font-family="noto_regular"  y="15"></text></g></g><g id="ftrCVx6IzH6"><mask id="339ff" x="645" y="485" width="29" height="169" maskUnits="userSpaceOnUse"><rect x="645" y="485" width="29" height="169" fill="white" />undefined</mask><g mask="url(#339ff)"><path d="M 659,499 L 660,640" fill="none" stroke="#7F7F7F" stroke-width="2" stroke-linecap="round" stroke-linejoin="round"/><path d="M 660,640 L 665.7114677517582,631.2789907206617 L 654.2115803274407,631.3298751782913 Z" fill="rgb(127,127,127)" stroke="#7F7F7F" stroke-width="2" stroke-linecap="round" stroke-linejoin="round"/></g>undefined</g><g id="XSGpb2oHHdO"><mask id="4b77d" x="695" y="354" width="456" height="109" maskUnits="userSpaceOnUse"><rect x="695" y="354" width="456" height="109" fill="white" /><rect x="868.7895719999999" y="411.59263450000003" width="102" height="26" fill="black" /></mask><g mask="url(#4b77d)"><path d="M 1137,368 C 923,408.5 923,449 709,449" fill="none" stroke="#7E7E7E" stroke-width="2" stroke-linecap="round" stroke-linejoin="round"/><path d="M 709,449 L 717.7176421779261,454.71660577504895 L 717.673534249029,443.2166903627249 Z" fill="rgb(126,126,126)" stroke="#7E7E7E" stroke-width="2" stroke-linecap="round" stroke-linejoin="round"/></g><g transform="translate(871.7895719999999, 414.59263450000003)" width="96" height="20"><text text-decoration="none" x="2" fill="#4b4b4b" font-size="10pt" font-family="lt_regular"  y="15">Amount&#160;</text><text text-decoration="none" x="51" fill="#4b4b4b" font-size="10pt" font-family="lt_regular"  y="15">Balance</text><text text-decoration="none" x="94" fill="#4b4b4b" font-size="10pt" font-family="noto_regular"  y="15"></text></g></g><g id="TEEMyMOrdxf"><mask id="c25f7" x="691" y="378" width="476" height="127.99128806160036" maskUnits="userSpaceOnUse"><rect x="691" y="378" width="476" height="127.99128806160036" fill="white" /><rect x="835.9449589738729" y="467.7650964501976" width="98" height="26" fill="black" /></mask><g mask="url(#c25f7)"><path d="M 1153,392 C 929,430 884.7201295202888,540.2084648360814 705,468" fill="none" stroke="#7E7E7E" stroke-width="2" stroke-linecap="round" stroke-linejoin="round"/><path d="M 705,468 L 711.0311790950111,476.5030433054042 L 715.1856291308761,465.77967886603625 Z" fill="rgb(126,126,126)" stroke="#7E7E7E" stroke-width="2" stroke-linecap="round" stroke-linejoin="round"/></g><g transform="translate(838.9449589738729, 470.7650964501976)" width="92" height="20"><text text-decoration="none" x="1" fill="#4b4b4b" font-size="10pt" font-family="lt_regular"  y="15">Weekly&#160;</text><text text-decoration="none" x="48" fill="#4b4b4b" font-size="10pt" font-family="lt_regular"  y="15">Balance</text><text text-decoration="none" x="91" fill="#4b4b4b" font-size="10pt" font-family="noto_regular"  y="15"></text></g></g><g id="RV5kNnWlyFL"><mask id="6cd09" x="693" y="376" width="521" height="309" maskUnits="userSpaceOnUse"><rect x="693" y="376" width="521" height="309" fill="white" /><rect x="965.5200000000003" y="613.1599999999999" width="114" height="26" fill="black" /></mask><g mask="url(#6cd09)"><path d="M 707,671 Q 1200,671.25 1200,390" fill="none" stroke="#7F7F7F" stroke-width="2" stroke-linecap="round" stroke-linejoin="round"/><path d="M 1200,390 L 1194.25,398.69565217391306 L 1205.75,398.69565217391306 Z" fill="rgb(127,127,127)" stroke="#7F7F7F" stroke-width="2" stroke-linecap="round" stroke-linejoin="round"/></g><g transform="translate(968.5200000000003, 616.1599999999999)" width="108" height="20"><text text-decoration="none" x="1" fill="rgb(80, 80, 80)" font-size="10pt" font-family="lt_regular"  y="15">Transaction&#160;</text><text text-decoration="none" x="70" fill="rgb(80, 80, 80)" font-size="10pt" font-family="lt_regular"  y="15">details</text><text text-decoration="none" x="107" fill="#4b4b4b" font-size="10pt" font-family="noto_regular"  y="15"></text></g></g><g id="dCtz7rR43J0"><mask id="3a4ed" x="238" y="638" width="386" height="66" maskUnits="userSpaceOnUse"><rect x="238" y="638" width="386" height="66" fill="white" />undefinedundefined<rect x="369.3716857499999" y="658.8810846250001" width="49" height="26" fill="black" /></mask><g mask="url(#3a4ed)"><path d="M 610,690 C 431,690 431,671 252,652" fill="none" stroke="#7E7E7E" stroke-width="2" stroke-linecap="round" stroke-linejoin="round"/><path d="M 252,652 L 260.02620955832725,658.6525804659166 L 261.26405293378895,647.2193943930047 Z" fill="rgb(126,126,126)" stroke="#7E7E7E" stroke-width="2" stroke-linecap="round" stroke-linejoin="round"/></g>undefinedundefined<g transform="translate(372.3716857499999, 661.8810846250001)" width="43" height="20"><text text-decoration="none" x="0" fill="#4b4b4b" font-size="10pt" font-family="lt_regular"  y="15">Receipt</text><text text-decoration="none" x="43" fill="#4b4b4b" font-size="10pt" font-family="noto_regular"  y="15"></text></g></g></svg>